<?xml version="1.0" encoding="utf-8"?>
<!-- Generator: Adobe Illustrator 25.4.1, SVG Export Plug-In . SVG Version: 6.00 Build 0)  -->
<svg version="1.1" id="Layer_1" xmlns="http://www.w3.org/2000/svg" xmlns:xlink="http://www.w3.org/1999/xlink" x="0px" y="0px"
	 viewBox="0 0 204.9 43" style="enable-background:new 0 0 204.9 43;" xml:space="preserve">
<style type="text/css">
	.st0{fill:url(#SVGID_1_);}
	.st1{fill:url(#SVGID_00000138565360328725238940000016768552066658804146_);}
	.st2{fill:#FFFFFF;}
</style>
<linearGradient id="SVGID_1_" gradientUnits="userSpaceOnUse" x1="9.6957" y1="34.5445" x2="44.591" y2="3.172" gradientTransform="matrix(1 0 0 -1 0 44)">
	<stop  offset="0" style="stop-color:#B372CE"/>
	<stop  offset="1" style="stop-color:#F57591"/>
</linearGradient>
<path class="st0" d="M11.4,18.7c1.5-5.6,7.3-8.8,12.8-7.3c5.6,1.5,8.8,7.3,7.3,12.8c-2.2,8.1-8,14.6-15.7,17.9
	c9.4,2.6,19.6-1.5,24.5-10.4c5.7-10.4,1.8-23.4-8.6-29c-1.5-0.8-3-1.4-4.5-1.8C19.4,4,13.5,10.6,11.4,18.7z"/>
<linearGradient id="SVGID_00000081613086400499332350000011048171127211675817_" gradientUnits="userSpaceOnUse" x1="5.8529" y1="36.4775" x2="29.3696" y2="12.1033" gradientTransform="matrix(1 0 0 -1 0 44)">
	<stop  offset="0" style="stop-color:#7582F9"/>
	<stop  offset="1" style="stop-color:#9B66D4"/>
</linearGradient>
<path style="fill:url(#SVGID_00000081613086400499332350000011048171127211675817_);" d="M11.2,40.3c1.5,0.8,3,1.4,4.5,1.8l0,0
	c7.7-3.2,13.5-9.8,15.7-17.9c-1.5,5.6-7.3,8.8-12.8,7.3c-5.6-1.5-8.8-7.3-7.3-12.8c2.2-8.1,8-14.7,15.8-17.9
	C17.7-1.7,7.5,2.3,2.6,11.3C-3,21.7,0.8,34.7,11.2,40.3z"/>
<g>
	<path class="st2" d="M57.5,14.5c1.1-1.9,2.7-3.5,4.6-4.6c1.9-1.1,4-1.7,6.3-1.7c2.3,0,4.5,0.6,6.5,1.8c2,1.2,3.5,2.8,4.6,4.8
		l-4.6,2.5c-0.7-1.2-1.6-2.1-2.7-2.8c-1.1-0.7-2.4-1-3.8-1c-1.3,0-2.6,0.3-3.7,1c-1.1,0.7-2,1.5-2.7,2.7c-0.7,1.1-1,2.4-1,3.7
		s0.3,2.6,1,3.7s1.6,2,2.7,2.7s2.3,1,3.7,1c1.4,0,2.6-0.4,3.8-1.1c1.2-0.7,2.1-1.7,2.7-2.9l4.7,2.5c-1.1,2-2.6,3.6-4.6,4.8
		c-2,1.2-4.2,1.8-6.5,1.8c-2.3,0-4.4-0.6-6.3-1.7c-1.9-1.1-3.5-2.7-4.6-4.6c-1.1-1.9-1.7-4-1.7-6.3C55.8,18.5,56.3,16.4,57.5,14.5z"
		/>
	<path class="st2" d="M84.5,32.3c-1.4-0.8-2.5-2-3.4-3.4c-0.8-1.4-1.2-3-1.2-4.6c0-1.7,0.4-3.2,1.2-4.6c0.8-1.4,1.9-2.5,3.4-3.4
		c1.4-0.8,3-1.2,4.6-1.2c1.7,0,3.2,0.4,4.6,1.2c1.4,0.8,2.5,1.9,3.4,3.4c0.8,1.4,1.2,3,1.2,4.6c0,1.7-0.4,3.2-1.2,4.6
		c-0.8,1.4-1.9,2.5-3.4,3.4s-2.9,1.2-4.6,1.2C87.4,33.5,85.9,33.1,84.5,32.3z M92.1,27.2c0.8-0.8,1.3-1.8,1.3-3s-0.4-2.2-1.3-3
		c-0.8-0.8-1.8-1.3-3-1.3s-2.2,0.4-3,1.3c-0.8,0.8-1.2,1.8-1.2,3s0.4,2.2,1.2,3s1.8,1.2,3,1.2S91.2,28.1,92.1,27.2z"/>
	<path class="st2" d="M100.5,12.3c-0.5-0.5-0.8-1.2-0.8-2c0-0.9,0.3-1.6,0.8-2.1c0.5-0.5,1.3-0.8,2.2-0.8c0.9,0,1.6,0.3,2.2,0.8
		c0.5,0.5,0.8,1.2,0.8,2.1c0,0.9-0.3,1.5-0.8,2c-0.5,0.5-1.3,0.8-2.2,0.8C101.8,13.1,101.1,12.8,100.5,12.3z M100.2,33V15.5h5V33
		H100.2z"/>
	<path class="st2" d="M120.8,15.6c1,0.4,1.9,1.2,2.7,2.3s1.1,2.6,1.1,4.5V33h-5V22.5c0-1.1-0.3-1.9-0.9-2.4
		c-0.6-0.5-1.4-0.7-2.2-0.7c-0.9,0-1.6,0.3-2.2,0.9c-0.6,0.6-0.9,1.6-0.9,2.9V33h-5V15.5h5v1.2c1.3-1.1,2.7-1.7,4.2-1.7
		C118.7,15,119.8,15.2,120.8,15.6z"/>
	<path class="st2" d="M144.3,10.1c1.9,1.1,3.5,2.6,4.6,4.4c1.1,1.9,1.7,4,1.7,6.2c0,2.3-0.6,4.4-1.7,6.2c-1.1,1.9-2.6,3.3-4.6,4.4
		c-1.9,1.1-4,1.6-6.3,1.6h-10V8.5h10C140.3,8.5,142.4,9,144.3,10.1z M138,28c1.3,0,2.6-0.3,3.7-1s2-1.5,2.7-2.6s1-2.3,1-3.6
		s-0.3-2.6-1-3.7c-0.7-1.1-1.5-2-2.7-2.7s-2.4-1-3.7-1h-4.8V28H138z"/>
	<path class="st2" d="M165.8,15.5h5V33h-5v-1.3c-0.8,0.6-1.6,1-2.5,1.3c-0.9,0.3-1.8,0.5-2.8,0.5c-1.8,0-3.4-0.4-4.7-1.2
		s-2.3-1.9-3-3.3c-0.7-1.4-1-3-1-4.7s0.3-3.4,1-4.8c0.7-1.4,1.7-2.5,3-3.3c1.3-0.8,2.9-1.2,4.7-1.2c1,0,1.9,0.2,2.8,0.5
		c0.9,0.3,1.8,0.8,2.5,1.4V15.5z M164.4,27.4c0.9-0.8,1.3-1.9,1.3-3.3c0-1.3-0.4-2.3-1.3-3.1c-0.9-0.8-2-1.2-3.3-1.2
		s-2.4,0.4-3.2,1.2c-0.8,0.8-1.3,1.9-1.3,3.2s0.4,2.4,1.3,3.2c0.8,0.8,1.9,1.2,3.2,1.2S163.5,28.3,164.4,27.4z"/>
	<path class="st2" d="M180.7,28.1c0.4,0.3,0.9,0.4,1.7,0.4c0.5,0,1,0,1.5-0.1V33c-1.2,0.1-2.1,0.2-2.9,0.2c-2,0-3.4-0.4-4.4-1.3
		c-1-0.9-1.5-2.5-1.5-4.8v-7.1h-3v-4.4h3v-4.1l5-1.7v5.7h3.7v4.4h-3.7v6.8C180.2,27.4,180.4,27.8,180.7,28.1z"/>
	<path class="st2" d="M199.3,15.5h5V33h-5v-1.3c-0.8,0.6-1.6,1-2.5,1.3c-0.9,0.3-1.8,0.5-2.8,0.5c-1.8,0-3.4-0.4-4.7-1.2
		s-2.3-1.9-3-3.3c-0.7-1.4-1-3-1-4.7s0.3-3.4,1-4.8c0.7-1.4,1.7-2.5,3-3.3c1.3-0.8,2.9-1.2,4.7-1.2c1,0,1.9,0.2,2.8,0.5
		c0.9,0.3,1.8,0.8,2.5,1.4V15.5z M197.9,27.4c0.9-0.8,1.3-1.9,1.3-3.3c0-1.3-0.4-2.3-1.3-3.1c-0.9-0.8-2-1.2-3.3-1.2
		s-2.4,0.4-3.2,1.2c-0.8,0.8-1.3,1.9-1.3,3.2s0.4,2.4,1.3,3.2c0.8,0.8,1.9,1.2,3.2,1.2S197,28.3,197.9,27.4z"/>
</g>
</svg>
