<svg width="141" height="60" viewBox="0 0 141 60" fill="none" xmlns="http://www.w3.org/2000/svg">
<g clip-path="url(#clip0)">
<path fill-rule="evenodd" clip-rule="evenodd" d="M102.472 14.3298L98.6124 18.1888H92.5501L89.243 21.4954V18.1888H84.2823V2.20445H102.472V14.3298ZM82.0768 -0.000241211L80.9746 4.40942V24.2513H85.9358V27.0078H88.6909L91.4476 24.2513H95.8565L104.675 15.4337V-0.000241211H82.0768V-0.000241211Z" fill="#D9D7E6"/>
<path fill-rule="evenodd" clip-rule="evenodd" d="M90.3447 13.2285H92.5494V6.61332H90.3447V13.2285ZM96.4073 13.2285H98.6119V6.61332H96.4073V13.2285Z" fill="#D9D7E6"/>
<path fill-rule="evenodd" clip-rule="evenodd" d="M116.25 38.5825L112.392 34.7252H105.226V29.764H99.1621V52.3621H105.226V40.7869H110.186V52.3621H116.25V38.5825ZM96.9588 34.7252H87.5888L83.7304 38.5825V48.5031L87.5888 52.3621H96.9588V46.2999H89.7926V40.7869H96.9588V34.7252V34.7252ZM81.5257 34.7252H76.5659V29.764H70.502V48.5031L74.3604 52.3621H81.5257V46.2999H76.5659V40.7869H81.5257V34.7252V34.7252ZM68.2973 29.764H62.235V32.5208H68.2973V29.764ZM68.2973 34.7252H62.235V52.3618H68.2973V34.7252V34.7252ZM60.0304 34.7252H53.9675V46.2999H51.7634V34.7252H45.7003V46.2999H43.4965V34.7252H37.4325V52.3621H56.1728L60.0304 48.5031V34.7252V34.7252ZM35.2278 34.7252H30.2678V29.764H24.205V48.5031L28.0631 52.3621H35.2278V46.2999H30.2678V40.7869H35.2278V34.7252V34.7252ZM118.453 37.48V54.0147L110.186 59.5269H104.674V56.7701L100.816 59.5269H95.8566V56.7701L93.1015 59.5269H84.2825L81.5257 56.7701L80.9739 59.5269H73.2588L70.1037 56.7701L69.927 59.5269H61.182L60.8728 56.7701L58.5055 59.5269H45.1485L42.3923 58.4244V59.5269H35.2278L26.96 54.5651L22 49.607V27.5599H32.4728L37.4325 32.5208H60.0304V27.5599H78.7698V32.5208H83.7304V35.2759L86.4872 32.5208H91.9976L96.9588 27.5599H107.431V32.5208H113.494L118.453 37.48Z" fill="#D9D7E6"/>
</g>
<defs>
<clipPath id="clip0">
<rect width="141" height="60" fill="white"/>
</clipPath>
</defs>
</svg>
