<svg width="141" height="60" viewBox="0 0 141 60" fill="none" xmlns="http://www.w3.org/2000/svg">
<path d="M28.4722 27.5127C27.4779 27.5127 26.693 28.3674 26.693 29.4315C26.693 30.4955 27.4953 31.3502 28.4722 31.3502C29.4664 31.3502 30.2514 30.4955 30.2514 29.4315C30.2514 28.3674 29.449 27.5127 28.4722 27.5127V27.5127ZM22.1054 27.5127C21.1111 27.5127 20.3262 28.3674 20.3262 29.4315C20.3262 30.4955 21.1286 31.3502 22.1054 31.3502C23.0996 31.3502 23.8846 30.4955 23.8846 29.4315C23.902 28.3674 23.0996 27.5127 22.1054 27.5127V27.5127Z" fill="#D9D7E6"/>
<path d="M36.9498 13H13.5759C11.6048 13 10 14.6048 10 16.5759V39.9498C10 41.9209 11.6048 43.5257 13.5759 43.5257H33.3565L32.432 40.3335L34.6647 42.3919L36.7754 44.3281L40.5431 47.5899V16.5759C40.5257 14.6048 38.9209 13 36.9498 13ZM30.2167 35.589C30.2167 35.589 29.5888 34.8389 29.0655 34.1935C31.3505 33.5481 32.2227 32.1352 32.2227 32.1352C31.5075 32.6062 30.8272 32.9376 30.2167 33.1644C29.3445 33.5307 28.5073 33.7575 27.6874 33.9144C26.0129 34.2284 24.4779 34.1412 23.1696 33.897C22.1754 33.7051 21.3207 33.4435 20.6055 33.1469C20.2043 32.9899 19.7682 32.7981 19.3321 32.5539C19.2798 32.519 19.2275 32.5015 19.1751 32.4666C19.1403 32.4492 19.1228 32.4318 19.1054 32.4318C18.7914 32.2573 18.617 32.1352 18.617 32.1352C18.617 32.1352 19.4542 33.5132 21.6695 34.1761C21.1462 34.8389 20.5008 35.6064 20.5008 35.6064C16.6459 35.4843 15.1806 32.9725 15.1806 32.9725C15.1806 27.4081 17.6925 22.8903 17.6925 22.8903C20.2043 21.0239 22.5766 21.0762 22.5766 21.0762L22.751 21.2855C19.6112 22.1751 18.1809 23.5532 18.1809 23.5532C18.1809 23.5532 18.5646 23.3438 19.21 23.0647C21.0765 22.2449 22.5591 22.0356 23.1696 21.9658C23.2743 21.9484 23.3615 21.9309 23.4662 21.9309C24.5302 21.7914 25.7338 21.7565 26.9897 21.896C28.6468 22.0879 30.426 22.5763 32.2401 23.5531C32.2401 23.5531 30.8621 22.2449 27.8968 21.3553L28.141 21.0762C28.141 21.0762 30.5307 21.0239 33.0251 22.8903C33.0251 22.8903 35.5369 27.4081 35.5369 32.9725C35.5369 32.9551 34.0717 35.4669 30.2167 35.589V35.589Z" fill="#D9D7E6"/>
<path d="M51.1982 22.6672H45.4947V29.075L49.2913 32.4937V26.2748H51.3185C52.6069 26.2748 53.2426 26.8933 53.2426 27.8897V32.6483C53.2426 33.6447 52.6413 34.3147 51.3185 34.3147H45.4775V37.9396H51.1811C54.239 37.9567 57.1079 36.4278 57.1079 32.9232V27.8038C57.1251 24.2305 54.2562 22.6672 51.1982 22.6672ZM81.0902 32.9232V27.6663C81.0902 25.7766 84.4917 25.3471 85.5224 27.2369L88.6662 25.9656C87.4293 23.2513 85.1788 22.461 83.3063 22.461C80.2484 22.461 77.2248 24.2305 77.2248 27.6663V32.9232C77.2248 36.3934 80.2484 38.1285 83.2376 38.1285C85.1617 38.1285 87.4637 37.1837 88.7349 34.7098L85.3678 33.1637C84.5432 35.2768 81.0902 34.7614 81.0902 32.9232V32.9232ZM70.6967 28.3879C69.5113 28.1302 68.7211 27.7007 68.6696 26.962C68.7383 25.1925 71.4698 25.1238 73.0674 26.8246L75.5928 24.8833C74.0123 22.9592 72.2257 22.4438 70.3875 22.4438C67.5873 22.4438 64.8729 24.0243 64.8729 27.0135C64.8729 29.9168 67.1062 31.4801 69.5629 31.8581C70.817 32.0299 72.2085 32.5281 72.1741 33.387C72.0711 35.0191 68.7039 34.9332 67.175 33.0778L64.7355 35.3627C66.1614 37.2008 68.1026 38.1285 69.9236 38.1285C72.7239 38.1285 75.8333 36.5137 75.9536 33.5588C76.1254 29.8309 73.411 28.8861 70.6967 28.3879V28.3879ZM59.1866 37.9224H63.0348V22.6672H59.1866V37.9224ZM124.073 22.6672H118.369V29.075L122.166 32.4937V26.2748H124.193C125.481 26.2748 126.117 26.8933 126.117 27.8897V32.6483C126.117 33.6447 125.516 34.3147 124.193 34.3147H118.352V37.9396H124.073C127.131 37.9567 130 36.4278 130 32.9232V27.8038C130 24.2305 127.131 22.6672 124.073 22.6672V22.6672ZM96.0877 22.461C92.9267 22.461 89.7829 24.179 89.7829 27.7007V32.906C89.7829 36.3934 92.9439 38.1457 96.122 38.1457C99.283 38.1457 102.427 36.3934 102.427 32.906V27.7007C102.427 24.1961 99.2487 22.461 96.0877 22.461ZM98.5615 32.906C98.5615 34.0055 97.3246 34.5724 96.1049 34.5724C94.8679 34.5724 93.631 34.0399 93.631 32.906V27.7007C93.631 26.5841 94.8336 25.9828 96.0361 25.9828C97.2902 25.9828 98.5615 26.5153 98.5615 27.7007V32.906ZM116.239 27.7007C116.153 24.1274 113.714 22.6844 110.57 22.6844H104.471V37.9396H108.371V33.095H109.058L112.597 37.9396H117.407L113.25 32.6999C115.088 32.1158 116.239 30.5181 116.239 27.7007V27.7007ZM110.639 29.7622H108.371V26.2748H110.639C113.061 26.2748 113.061 29.7622 110.639 29.7622Z" fill="#D9D7E6"/>
</svg>
