<svg width="141" height="60" viewBox="0 0 141 60" fill="none" xmlns="http://www.w3.org/2000/svg">
<path d="M29.554 43.1946L21.4781 43.0468C18.8633 42.9954 16.242 43.0982 13.6785 42.565C9.77869 41.7683 9.50243 37.8621 9.21332 34.5854C8.81498 29.9789 8.96918 25.2888 9.72087 20.7209C10.1449 18.1574 11.8153 16.6283 14.3981 16.4612C23.1165 15.8573 31.8926 15.928 40.5917 16.2107C41.5105 16.2364 42.4356 16.3777 43.3415 16.5383C47.8132 17.3222 47.9224 21.7488 48.2115 25.4752C48.5006 29.2401 48.3785 33.0242 47.826 36.7634C47.3827 39.8602 46.5346 42.4557 42.956 42.7063C38.4716 43.034 34.0899 43.2974 29.5926 43.2139C29.5926 43.1946 29.5669 43.1946 29.554 43.1946V43.1946ZM24.8062 35.3564C28.1856 33.4161 31.5007 31.508 34.8609 29.5806C31.475 27.6403 28.1663 25.7321 24.8062 23.8047V35.3564Z" fill="#D9D7E6"/>
<path d="M113.251 39.6729C113.096 40.3025 112.961 40.7972 112.827 41.324H109.666V16.9421H113.353V25.9368C113.546 25.6926 113.642 25.5898 113.726 25.4806C114.356 24.6133 115.172 24.0479 116.225 23.8295C117.902 23.5018 119.335 24.2406 119.842 25.8533C120.17 26.8555 120.382 27.9284 120.408 28.9757C120.459 31.6676 120.421 34.3532 120.324 37.0451C120.286 37.8675 120.035 38.7092 119.72 39.4801C118.686 42.0243 115.306 42.4098 113.63 40.2061C113.527 40.0712 113.43 39.9234 113.251 39.6729V39.6729ZM113.43 32.9654V37.4242C113.43 38.1502 113.816 38.5935 114.542 38.7606C115.255 38.9276 115.833 38.6513 116.122 37.9896C116.244 37.7133 116.367 37.4242 116.373 37.1351C116.444 34.411 116.508 31.6869 116.527 28.9564C116.527 28.4488 116.405 27.922 116.251 27.4273C115.962 26.5343 115.165 26.2709 114.381 26.7913C113.79 27.1896 113.43 27.755 113.43 28.5067V32.9654ZM103.408 24.1764H107.269V41.3369H104.256C104.147 40.688 104.037 40.0198 103.909 39.236C103.703 39.5379 103.581 39.7307 103.453 39.9234C102.451 41.369 101.031 41.8637 99.3538 41.6003C97.9211 41.369 97.0602 40.2639 96.8675 38.4522C96.8096 37.9125 96.7839 37.3664 96.7839 36.8267C96.7711 32.8112 96.7839 28.7829 96.7839 24.7675V24.1635H100.69V24.8638C100.69 28.7444 100.677 32.6185 100.703 36.499C100.703 37.0516 100.761 37.6234 100.857 38.1759C100.966 38.7413 101.378 38.9469 101.93 38.9083C102.823 38.8376 103.44 38.1759 103.44 37.2893V24.9345C103.408 24.684 103.408 24.4527 103.408 24.1764V24.1764ZM76.8223 24.1635H80.7028V24.8895C80.7028 28.7508 80.69 32.6057 80.7157 36.4541C80.7157 37.0066 80.7671 37.5784 80.8827 38.1181C81.0305 38.7541 81.4031 38.9597 82.0392 38.8762C82.9193 38.7541 83.4526 38.1438 83.459 37.2507V24.9602V24.1892H87.3203V41.3369H84.3199C84.2107 40.7008 84.1015 40.0455 83.9602 39.2167C83.7674 39.5058 83.6582 39.6729 83.549 39.8463C82.5467 41.3176 81.1397 41.8573 79.4243 41.5939C78.0494 41.3883 77.2078 40.3732 76.9508 38.7092C76.8801 38.1888 76.8287 37.6748 76.8287 37.1544C76.8158 32.9847 76.8158 28.7958 76.8158 24.6261L76.8223 24.1635ZM74.8306 33.3252C74.8177 33.9035 74.7792 34.4817 74.7471 35.0599C74.5993 36.7946 74.5286 39.2553 73.128 40.5209C72.235 41.3176 71.1042 41.6067 69.9349 41.6453C69.4145 41.6581 68.8877 41.6581 68.3673 41.5874C65.9066 41.2148 64.763 40.129 64.3518 37.4242C63.8828 34.3018 63.8443 31.128 64.4032 28.0055C64.9815 24.7739 66.9731 23.6303 70.0699 23.8423C72.961 24.0479 74.2524 25.9432 74.5929 28.6416C74.7792 30.19 74.8691 31.7576 74.8306 33.3252V33.3252ZM70.8987 32.7341C70.8987 31.6355 70.9244 30.5305 70.8858 29.4318C70.8601 28.7958 70.7766 28.1533 70.6417 27.5237C70.4875 26.7977 70.0249 26.4508 69.4467 26.4636C68.8813 26.4765 68.483 26.8234 68.2774 27.498C68.2067 27.7486 68.1296 28.0055 68.1296 28.2561C68.1296 29.9779 68.1167 31.7062 68.1039 33.428C68.091 35.0342 67.8855 36.7175 68.393 38.253C68.5472 38.722 68.9455 38.979 69.4659 38.979C69.9735 38.979 70.3076 38.7284 70.4939 38.2787C70.6417 37.9318 70.7702 37.5527 70.7702 37.1801C70.8151 35.7024 70.8987 34.2183 70.8987 32.7341ZM58.6852 29.5025C59.0257 27.8385 59.347 26.213 59.7003 24.5812C60.1436 22.506 60.6383 20.4308 61.0752 18.3492C61.1845 17.8416 61.39 17.7195 61.8719 17.7324C62.9063 17.7709 63.9599 17.7452 65.065 17.7452C64.7052 19.0687 64.3518 20.328 64.0049 21.568C62.9063 25.4613 61.8077 29.3676 60.7219 33.2738C60.6383 33.5758 60.5998 33.9035 60.5998 34.2247C60.5869 36.3577 60.5998 38.4843 60.5998 40.6173V41.3112H56.8285C56.8156 41.1184 56.7899 40.9257 56.7899 40.7329C56.7899 39.5251 56.6936 38.3108 56.8028 37.1158C57.079 34.244 56.1667 31.6034 55.4279 28.9307C54.4513 25.3971 53.4619 21.8506 52.4854 18.317C52.434 18.15 52.4147 17.9701 52.3633 17.7645H56.2117C57.0212 21.6643 57.8372 25.5641 58.6852 29.5025ZM132.473 33.9805H125.972C126.042 35.2848 126.068 36.5247 126.203 37.7519C126.299 38.6064 126.768 38.9726 127.507 38.979C128.278 38.9918 128.728 38.6064 128.908 37.7583C128.965 37.482 129.004 37.2058 129.03 36.9231C129.055 36.6725 129.068 36.4027 129.088 36.0429C130.186 36.1007 131.259 36.165 132.319 36.2099C132.936 38.041 131.824 40.3924 129.955 41.1184C128.484 41.6967 126.974 41.6967 125.47 41.2534C124.359 40.9257 123.53 40.219 123.157 39.1332C122.811 38.1181 122.483 37.058 122.412 35.9979C122.219 33.383 122.149 30.7425 122.547 28.1212C122.618 27.6843 122.74 27.2667 122.875 26.8427C123.414 25.0951 124.59 24.0222 126.408 23.8423C127.398 23.7459 128.419 23.7845 129.396 23.9515C130.976 24.2278 131.818 25.365 132.184 26.8555C132.351 27.5558 132.473 28.2754 132.499 28.9885C132.505 30.6268 132.473 32.2523 132.473 33.9805ZM128.779 31.7255C128.779 30.4341 128.792 29.2198 128.766 27.9991C128.766 27.71 128.657 27.408 128.548 27.1318C128.329 26.5921 127.873 26.4443 127.327 26.4443C126.781 26.4443 126.434 26.7206 126.299 27.2153C125.888 28.6994 126.023 30.2157 126.036 31.7383C127.019 31.7255 127.912 31.7255 128.779 31.7255V31.7255Z" fill="#D9D7E6"/>
<path d="M90.3012 20.8934H86.4785V17.7966H97.8889V20.8741H94.0918V41.3112H90.3077L90.3012 20.8934Z" fill="#D9D7E6"/>
</svg>
