<svg width="141" height="60" viewBox="0 0 141 60" fill="none" xmlns="http://www.w3.org/2000/svg">
<path d="M27.1525 11H28.1744C31.722 11.0771 35.2118 12.5039 37.7183 15.0297C36.7928 15.9744 35.8481 16.8806 34.9419 17.8253C33.5344 16.5528 31.8377 15.5695 29.9868 15.2225C27.2489 14.644 24.299 15.1646 22.0046 16.7263C19.4981 18.3652 17.8014 21.1416 17.4351 24.1108C17.0302 27.0415 17.8593 30.1264 19.7681 32.4015C21.5997 34.6188 24.3954 36.007 27.2875 36.1034C29.9868 36.2576 32.8018 35.4285 34.7684 33.539C36.3108 32.2087 37.0242 30.1842 37.2556 28.2176C34.055 28.2176 30.8544 28.2369 27.6538 28.2176V24.2458H41.131C41.8251 28.5068 40.8225 33.3077 37.5834 36.354C35.4239 38.5134 32.4354 39.786 29.3891 40.0366C26.4392 40.3258 23.3928 39.7667 20.7707 38.3399C17.6279 36.6625 15.1214 33.8283 13.8875 30.4927C12.7306 27.4271 12.7114 23.9566 13.7911 20.8717C14.7744 18.0567 16.6639 15.5695 19.0932 13.8343C21.4262 12.1183 24.2604 11.1735 27.1525 11Z" fill="#D9D7E6"/>
<path d="M104.469 12.0024H108.595V39.5352C107.226 39.5352 105.838 39.5545 104.469 39.5159C104.488 30.3576 104.469 21.18 104.469 12.0024V12.0024Z" fill="#D9D7E6"/>
<path d="M50.3083 21.5465C52.8533 21.0645 55.6105 21.6044 57.712 23.1275C59.6208 24.4772 60.9512 26.598 61.3561 28.9117C61.8767 31.5917 61.2211 34.5224 59.4859 36.6432C57.6156 39.0148 54.55 40.2873 51.5615 40.0945C48.8237 39.9402 46.1629 38.5713 44.5434 36.3348C42.7117 33.8668 42.2683 30.4734 43.2709 27.5814C44.2734 24.4772 47.1077 22.1057 50.3083 21.5465V21.5465ZM50.8867 25.2098C49.8455 25.4798 48.8815 26.0775 48.1874 26.9258C46.3172 29.1624 46.4329 32.8064 48.4959 34.8887C49.672 36.0841 51.4458 36.6432 53.0847 36.3155C54.6079 36.0456 55.9382 35.0237 56.6709 33.674C57.9434 31.3796 57.5771 28.2176 55.6297 26.4245C54.3765 25.2677 52.5448 24.7857 50.8867 25.2098Z" fill="#D9D7E6"/>
<path d="M70.7456 21.5465C73.657 20.9873 76.8383 21.7971 79.017 23.8409C82.5646 27.0222 82.9502 32.9799 79.9232 36.6432C78.0915 38.9569 75.1223 40.2294 72.1916 40.0944C69.3959 40.0173 66.6388 38.6291 64.9807 36.3347C63.1105 33.809 62.7056 30.3384 63.766 27.3885C64.8264 24.3807 67.6028 22.0863 70.7456 21.5465V21.5465ZM71.324 25.2098C70.2828 25.4797 69.3188 26.0774 68.6247 26.9065C66.7738 29.1045 66.8509 32.6907 68.8368 34.7923C70.0129 36.0455 71.8446 36.6625 73.5413 36.3154C75.0452 36.0262 76.3948 35.0236 77.1275 33.674C78.3807 31.3603 78.0144 28.1983 76.0478 26.4052C74.7945 25.2484 72.9629 24.7856 71.324 25.2098Z" fill="#D9D7E6"/>
<path d="M88.0807 22.6646C90.2979 21.2764 93.2479 20.8908 95.6387 22.0862C96.3906 22.414 97.0076 22.9731 97.6053 23.5322C97.6246 23.0117 97.6053 22.4718 97.6246 21.932C98.9164 21.9512 100.208 21.932 101.519 21.9512V38.9567C101.5 41.5211 100.844 44.2396 98.9935 46.1099C96.969 48.1729 93.8649 48.8091 91.0692 48.385C88.0807 47.9415 85.4778 45.7628 84.3209 43.0057C85.4778 42.4465 86.6925 42.0031 87.8879 41.4825C88.5627 43.0635 89.9316 44.4132 91.6476 44.7216C93.3636 45.0301 95.3495 44.606 96.4677 43.1792C97.6631 41.7139 97.6631 39.7087 97.6053 37.9156C96.7184 38.7832 95.6965 39.5544 94.4626 39.8437C91.7825 40.5956 88.8326 39.6701 86.7696 37.8578C84.6873 36.0454 83.4533 33.2497 83.569 30.4733C83.6268 27.3305 85.4007 24.3035 88.0807 22.6646V22.6646ZM92.0718 25.1325C90.8956 25.3253 89.7966 25.9809 89.0447 26.8871C87.2323 29.0465 87.2323 32.4977 89.064 34.6186C90.1051 35.8718 91.7825 36.5659 93.4021 36.3924C94.9253 36.2382 96.3328 35.2741 97.0847 33.9438C98.3572 31.688 98.1452 28.6223 96.4292 26.6557C95.3687 25.441 93.6721 24.8433 92.0718 25.1325V25.1325Z" fill="#D9D7E6"/>
<path d="M113.548 23.648C115.862 21.4886 119.429 20.7559 122.398 21.8935C125.213 22.9539 127.006 25.6339 127.912 28.391C123.729 30.1263 119.564 31.8423 115.38 33.5775C115.958 34.6765 116.845 35.6791 118.041 36.084C119.718 36.6817 121.723 36.4696 123.131 35.3513C123.69 34.9272 124.133 34.368 124.558 33.8282C125.618 34.5416 126.678 35.2357 127.739 35.949C126.235 38.2049 123.709 39.7859 120.991 40.0365C117.983 40.4029 114.782 39.246 112.835 36.8938C109.634 33.1919 109.943 26.9836 113.548 23.648V23.648ZM115.611 27.2149C114.956 28.1597 114.686 29.3165 114.705 30.4541C117.501 29.2972 120.297 28.1404 123.092 26.9643C122.63 25.8846 121.511 25.229 120.374 25.0555C118.542 24.7277 116.633 25.711 115.611 27.2149V27.2149Z" fill="#D9D7E6"/>
</svg>
