<svg width="141" height="60" viewBox="0 0 141 60" fill="none" xmlns="http://www.w3.org/2000/svg">
<path d="M45.9478 26.3864C45.9478 23.9449 43.5737 21.3518 39.4651 21.3518C34.8514 21.3518 29.7831 24.7363 29.0086 31.4884C28.2172 38.3079 32.4604 41.3388 36.7373 41.3388C41.0142 41.3388 43.2537 39.6718 45.5437 37.4491C43.5737 34.9739 41.0311 36.1189 40.5428 36.3715C40.0039 36.6409 39.3136 37.0114 37.8992 37.0114C36.249 37.0114 34.5652 36.2705 34.5652 33.1891C45.1396 32.1451 45.9478 28.828 45.9478 26.3864ZM40.7111 26.7905C40.6438 27.5483 40.3407 28.8448 34.9861 29.5688C36.1143 25.5613 38.2696 25.2582 39.2631 25.2582C40.1892 25.2582 40.7785 25.9823 40.7111 26.7905ZM22.7952 27.4472C22.7952 27.4472 20.5221 34.5866 20.3369 35.176C20.2695 34.5698 18.6025 21.7559 18.6025 21.7559C14.7297 21.7559 12.6586 24.5174 11.5641 27.4304C11.5641 27.4304 8.80266 34.5866 8.56692 35.1928C8.55008 34.6372 8.14596 27.5146 8.14596 27.5146C7.91023 23.9449 4.64361 21.7727 2 21.7727L5.19927 41.1872C9.25729 41.1704 11.4463 38.4258 12.5913 35.5127C12.5913 35.5127 15.0328 29.1984 15.1338 28.9122C15.1507 29.1816 16.885 41.1872 16.885 41.1872C20.9599 41.1872 23.1488 38.611 24.3275 35.799L30.0357 21.7727C26.0114 21.7727 23.8897 24.5174 22.7952 27.4472ZM60.9002 21.3181C58.3913 21.3181 56.4718 22.682 54.8553 24.6857V24.6689L56.3034 13C52.9694 13 50.2584 15.8962 49.7365 20.2068L47.2107 41.0357C49.1303 41.0357 51.1677 40.48 52.2622 39.0656C53.2388 40.3285 54.7037 41.3388 56.8759 41.3388C62.4999 41.3388 66.3558 34.8055 66.3558 28.6764C66.3221 23.0861 63.6112 21.3181 60.9002 21.3181ZM60.3782 31.3369C59.7889 34.755 57.8862 37.0787 56.0508 37.0787C54.1986 37.0787 53.4072 36.2536 53.4072 36.2536C53.7608 33.2564 53.9797 31.4211 54.6532 29.8383C55.3268 28.2555 56.9264 25.7297 58.5934 25.7297C60.2267 25.7297 60.9676 27.9019 60.3782 31.3369ZM80.3989 21.7727H76.4756L76.4924 21.5707C76.7619 19.0113 77.368 17.6642 79.3718 17.4453C80.7357 17.3106 81.3419 16.6034 81.4934 15.8288C81.6113 15.2227 81.9817 13.1179 81.9817 13.1179C74.1014 13.0674 71.6262 16.4687 70.9863 21.6549L70.9695 21.7727H70.8853C69.6056 21.7727 68.1912 23.2208 67.9554 25.0562L67.8713 25.7297H70.498L68.2922 43.9487L67.6187 47.2153C67.7029 47.2153 67.8039 47.2322 67.8881 47.2322C71.5757 47.0975 73.933 44.1845 74.455 39.958L76.1725 25.7297H77.4017C78.6141 25.7297 80.0285 24.5174 80.281 22.4968L80.3989 21.7727ZM100.807 21.436C96.2774 21.436 92.0005 24.7699 90.6871 30.0066C89.3737 35.2433 91.3606 41.4398 98.0286 41.4398C104.68 41.4398 108.519 34.9908 108.519 29.6194C108.519 24.2816 104.899 21.436 100.807 21.436ZM102.642 31.1685C102.407 33.5427 101.363 37.1461 98.5 37.1461C95.6207 37.1461 96.0248 32.9365 96.3111 30.9327C96.6142 28.7943 97.8097 25.7466 100.386 25.7466C102.693 25.7466 102.912 28.4912 102.642 31.1685ZM130.897 27.4472C130.897 27.4472 128.624 34.5866 128.438 35.176C128.371 34.5698 126.704 21.7559 126.704 21.7559C122.831 21.7559 120.76 24.5174 119.666 27.4304C119.666 27.4304 116.904 34.5866 116.669 35.1928C116.652 34.6372 116.248 27.5146 116.248 27.5146C116.012 23.9449 112.745 21.7727 110.102 21.7727L113.284 41.1872C117.342 41.1704 119.531 38.4258 120.676 35.5127C120.676 35.5127 123.118 29.1984 123.202 28.9122C123.219 29.1816 124.953 41.1872 124.953 41.1872C129.028 41.1872 131.217 38.611 132.395 35.799L138.104 21.7727C134.096 21.7727 131.974 24.5174 130.897 27.4472ZM84.1033 13.1179L80.803 39.7391L80.1295 43.0226C80.2137 43.0226 80.3147 43.0394 80.3989 43.0394C83.9518 42.9889 86.4775 39.8739 86.949 35.9505L88.8517 20.6782C89.4242 16.014 86.6459 13.1179 84.1033 13.1179Z" fill="#D9D7E6"/>
</svg>
