<svg width="141" height="60" viewBox="0 0 141 60" fill="none" xmlns="http://www.w3.org/2000/svg">
<path d="M17.6052 14.0351C15.846 14.2323 13.2071 15.0512 11.7057 15.8702C7.6716 18.0389 4.94175 21.4209 3.57682 25.9251C3.30384 26.8047 2.98536 29.2009 3.00052 30.3232C3.00052 31.309 3.30384 33.7204 3.48583 34.2967C3.57682 34.5696 3.77398 35.2218 3.9408 35.7222C4.21379 36.5715 5.53322 39.2407 5.7607 39.4227C5.8062 39.4682 6.04885 39.7715 6.27634 40.1203C6.83748 40.9545 8.30856 42.4407 9.41567 43.29C10.265 43.9421 12.6612 45.3222 12.9645 45.3374C13.0403 45.3374 13.0555 44.7611 13.01 44.0028C12.9038 42.3194 13.2223 40.0293 13.9048 37.6938C14.0261 37.2995 14.1171 36.7839 14.1171 36.5564C14.1171 36.3289 14.1777 36.0862 14.2536 36.0104C14.3294 35.9194 14.4659 35.4796 14.5417 35.0246C14.6327 34.5696 14.7844 33.872 14.8905 33.4777C15.0422 32.8862 15.027 32.6587 14.8147 32.0218C14.5114 31.0512 14.4962 29.4739 14.7995 28.7156C15.5123 26.9109 16.301 26.2284 17.6355 26.2284C19.2431 26.2284 20.0166 27.4417 19.7133 29.4739C19.5768 30.399 19.1976 31.855 18.955 32.3099C18.8943 32.4464 18.7882 32.8256 18.7427 33.1441C18.682 33.4777 18.5607 33.9478 18.4848 34.2057C18.2725 34.7971 18.682 35.9497 19.228 36.3895C19.7436 36.799 20.8204 36.9203 21.8062 36.6929C22.5038 36.5412 22.7919 36.3592 23.5199 35.6616C24.3843 34.8123 25.0365 33.8265 25.0365 33.3564C25.0365 33.2199 25.1123 33.0379 25.2033 32.9469C25.6279 32.5223 25.8554 29.2161 25.5369 27.8208C25.1881 26.2891 24.1114 24.7877 22.7161 23.9081C21.3208 23.0133 18.4393 22.7555 16.6649 23.3621C15.4213 23.7867 14.3142 24.4995 13.6014 25.3336C12.9645 26.0768 12.2972 27.29 12.2972 27.7147C12.2972 27.8663 12.2213 28.0635 12.1304 28.1545C12.0394 28.2455 11.9332 28.8218 11.8877 29.4436C11.8119 30.3687 11.8725 30.7933 12.1455 31.7033C12.3275 32.3251 12.6612 33.0531 12.8583 33.326C13.2678 33.872 13.2678 34.0843 12.8886 35.5403C12.7825 35.9346 12.6005 36.2985 12.4943 36.344C11.5389 36.708 9.59766 34.418 8.94553 32.1431C8.70287 31.2787 8.68771 28.2 8.93036 27.29C9.03652 26.9109 9.21851 26.3953 9.33984 26.1223C9.46117 25.8645 9.56733 25.6066 9.56733 25.546C9.56733 25.4853 9.87064 24.9697 10.2498 24.4085C12.2213 21.436 15.4213 19.8588 19.4706 19.8588C20.3957 19.8588 21.3512 19.9194 21.609 19.9953C23.7019 20.6474 24.263 20.8597 25.082 21.345C26.6744 22.3005 27.827 23.6047 28.9796 25.7886C29.0554 25.9251 29.1616 26.2891 29.2071 26.5924C29.2677 26.8957 29.3739 27.1839 29.4497 27.2294C29.5256 27.2749 29.5862 28.2607 29.5862 29.4284C29.5862 31.5365 29.4346 32.3858 28.7976 34.1147C28.0848 36.0104 26.2497 38.1033 24.5815 38.9222C23.6261 39.3772 21.8365 39.8777 21.1237 39.8777C20.1682 39.8777 18.2877 39.0891 17.772 38.4521C17.5294 38.1639 17.3019 38.2701 17.3019 38.6796C17.3019 38.8312 17.2412 39.0891 17.1502 39.2407C17.0744 39.3772 16.9379 39.8019 16.8621 40.181C16.4223 42.1829 15.8005 43.8056 14.845 45.3222C14.5569 45.7924 14.7995 46.0653 15.5882 46.1715C15.9825 46.2322 16.5133 46.3383 16.7559 46.4142C17.3626 46.6113 20.6535 46.581 21.7607 46.3838C22.7616 46.2018 24.3843 45.7469 25.1123 45.4435C29.6924 43.563 33.1654 39.7412 34.6668 34.873C35.4706 32.2796 35.5161 29.2616 34.7881 26.2284C34.5455 25.2427 34.4696 25.0152 33.8175 23.4986C32.8772 21.2844 30.754 18.691 28.6004 17.0986C26.7502 15.7337 24.9303 14.9451 22.0943 14.2626C21.3057 14.0806 18.5 13.9289 17.6052 14.0351V14.0351ZM58.0525 19.51C57.461 19.601 56.5207 20.5716 56.2781 21.3299C56.0203 22.164 56.2781 23.0588 57.006 23.7564C58.6136 25.3185 61.4041 23.8474 61.0553 21.6029C60.843 20.1773 59.5387 19.2673 58.0525 19.51ZM41.5217 20.4048C41.3852 20.5564 41.3852 38.8464 41.5369 39.0587C41.6127 39.1801 42.2649 39.2256 43.5388 39.2104L45.4345 39.1952L45.5103 36.1166C45.571 33.6142 45.6317 33.0076 45.8137 32.9014C45.935 32.8256 46.9663 32.7497 48.1037 32.7497C50.5909 32.7497 51.6373 32.5677 52.7748 31.9611C54.261 31.1573 55.1255 30.0047 55.5956 28.1697C55.8838 27.0171 55.8838 26.1829 55.5805 25C55.3075 23.9384 55.1861 23.6806 54.534 22.8161C53.7302 21.7393 52.9113 21.1479 51.5767 20.6777C50.8336 20.4351 50.2118 20.3896 46.1928 20.3441C43.6904 20.3138 41.5824 20.3441 41.5217 20.4048V20.4048ZM49.8478 24.181C50.8639 24.4995 51.3644 24.9545 51.5918 25.7735C51.88 26.8502 51.6677 27.8512 51.0307 28.4578C50.3331 29.1099 49.7113 29.2616 47.6791 29.2616C46.3445 29.2616 45.935 29.2161 45.753 29.0189C45.5558 28.837 45.5103 28.3971 45.5103 26.6682C45.5103 23.9384 45.4952 23.9536 47.6032 23.9536C48.5132 23.9536 49.3928 24.0446 49.8478 24.181ZM76.4486 23.2863C76.4486 24.3327 76.3728 25.3185 76.297 25.4853C76.1908 25.6825 75.9785 25.7735 75.6145 25.7735C75.3415 25.7735 75.0837 25.8341 75.0534 25.9251C75.0382 26.0009 75.0382 26.5317 75.0837 27.0929C75.1595 28.0938 75.1747 28.109 75.6297 28.2152C75.8875 28.2607 76.1757 28.3516 76.2666 28.4123C76.4031 28.4881 76.4486 29.6862 76.4486 32.7194C76.4486 36.799 76.4638 36.9507 76.7975 37.5573C77.4951 38.8464 78.587 39.3014 80.8012 39.2407L82.2875 39.1952L82.333 37.7241L82.3785 36.2379H81.9993C81.423 36.2379 80.5737 35.7829 80.4828 35.4189C80.4373 35.2369 80.3918 33.6294 80.3918 31.8246C80.3918 29.3374 80.4373 28.5033 80.5889 28.382C80.6951 28.291 81.1197 28.2 81.5292 28.1697L82.2875 28.1242V25.8493L81.4534 25.8038C80.9984 25.7735 80.5737 25.6673 80.5131 25.5763C80.4524 25.4701 80.3918 24.4844 80.3918 23.3773V21.3754H76.4486V23.2863ZM132.82 21.4664C132.759 21.527 132.714 22.4825 132.714 23.5896C132.714 25.7431 132.699 25.7735 131.865 25.7735C131.485 25.7735 131.485 25.7886 131.531 26.9412C131.576 28.0938 131.592 28.1242 131.986 28.1697C132.198 28.2 132.456 28.3062 132.532 28.3971C132.623 28.5033 132.714 30.3384 132.759 32.6739C132.805 34.9185 132.881 36.9658 132.941 37.2085C133.123 37.8758 134.064 38.7251 134.958 39.0132C135.959 39.3469 138.507 39.3772 138.765 39.0587C138.886 38.9222 138.932 38.3763 138.902 37.5876L138.856 36.3137L138.325 36.2227C137.749 36.1317 137.097 35.8284 136.93 35.5706C136.869 35.4796 136.809 33.8265 136.809 31.9005C136.809 27.9422 136.718 28.2 138.037 28.2C138.902 28.2 138.977 28.0483 138.902 26.6682L138.856 25.8493L137.87 25.7735L136.884 25.6976L136.809 23.5744L136.733 21.4512L134.822 21.4057C133.775 21.3905 132.881 21.4209 132.82 21.4664V21.4664ZM68.9416 25.4095C68.1984 25.6066 67.334 26.1071 66.7577 26.6986C66.06 27.4265 65.8781 27.381 65.8022 26.4559L65.7567 25.8493H61.9653V39.1952L63.8762 39.2255C65.7567 39.271 65.8022 39.2559 65.8932 38.9222C65.9387 38.7402 65.9842 36.8142 65.9842 34.6303C65.9842 30.308 65.9994 30.1867 66.8942 29.3374C67.2885 28.9583 67.5008 28.8825 68.3501 28.837L69.3359 28.7763L69.9273 29.3981C70.625 30.1261 70.5491 29.4284 70.6098 35.7071C70.625 37.3753 70.6401 38.8464 70.6553 38.9981C70.6856 39.2104 70.9283 39.2407 72.6269 39.2104L74.5529 39.1952V28.5488L74.1131 27.6844C73.3548 26.1829 72.187 25.4701 70.3975 25.3791C69.7605 25.364 69.1084 25.364 68.9416 25.4095V25.4095ZM87.8988 25.4095C86.2609 25.8493 85.4723 26.2891 84.4562 27.29C83.0913 28.6701 82.4695 30.2777 82.4695 32.4464C82.4846 36.253 84.8657 39.0739 88.3842 39.4075C91.387 39.6957 93.7074 38.8161 95.1936 36.8293C95.4059 36.5412 95.8609 35.6161 95.8609 35.4493C95.8609 35.3886 94.9813 35.3279 93.9197 35.3279H91.9785L91.5235 35.7981C90.9927 36.344 90.2496 36.6929 89.5671 36.6929C88.8846 36.6929 87.8382 36.2075 87.3529 35.6919C86.9889 35.2824 86.4581 34.0995 86.4581 33.69C86.4581 33.5535 87.5652 33.508 91.1292 33.508C93.6922 33.508 95.8609 33.4474 95.9671 33.3867C96.1946 33.235 95.9822 30.8237 95.6486 29.9441C94.9661 28.109 93.677 26.5621 92.3728 26.0161C91.9936 25.8645 91.5538 25.6673 91.4022 25.5915C91.0837 25.4246 88.3842 25.2881 87.8988 25.4095V25.4095ZM90.8562 28.7308C91.4477 29.1403 91.9633 30.1109 91.8875 30.6569C91.842 31.0057 91.8116 31.0057 89.2486 31.0512C86.2913 31.0967 86.2761 31.0815 86.7462 29.9896C87.0799 29.2313 87.7472 28.5488 88.369 28.3516C89.0818 28.1242 90.2344 28.3062 90.8562 28.7308ZM110.344 25.4095C108.585 25.8796 107.357 26.6531 106.401 27.8512C106.022 28.3365 105.719 28.7915 105.719 28.8825C105.719 28.9583 105.613 29.2313 105.476 29.4891C105.34 29.7317 105.142 30.49 105.036 31.1725C104.505 34.418 105.961 37.4511 108.691 38.8161L109.738 39.3469H111.937C114.212 39.3469 114.409 39.3014 115.804 38.5583C116.82 38.0123 118.488 35.8891 118.231 35.4644C118.17 35.3886 117.305 35.3279 116.289 35.3279H114.424L114.045 35.7677C112.528 37.4815 109.692 36.6019 109.086 34.2208C108.995 33.9023 108.995 33.6294 109.07 33.5687C109.146 33.5232 111.315 33.4929 113.908 33.508C117.609 33.508 118.61 33.4777 118.625 33.326C118.761 31.4303 117.851 28.6246 116.714 27.4114C116.077 26.7289 114.97 25.9706 114.424 25.8341C114.181 25.7735 113.908 25.6673 113.802 25.5915C113.59 25.4246 110.814 25.2881 110.344 25.4095V25.4095ZM112.71 28.3668C113.393 28.6095 114.181 29.4588 114.303 30.1109C114.485 31.0967 114.5 31.0967 111.679 31.0512C109.146 31.0057 109.131 31.0057 109.086 30.6569C109.025 30.2322 109.556 29.1858 110.011 28.7915C110.663 28.2455 111.8 28.0635 112.71 28.3668V28.3668ZM123.539 25.4095C120.43 26.1526 119.307 27.2597 119.292 29.5649C119.292 32.0521 120.536 33.0986 124.221 33.7507C126.754 34.1905 127.482 34.5848 127.451 35.5403C127.436 36.2227 126.966 36.6625 126.026 36.8597C124.843 37.1175 123.918 36.8293 123.175 35.9952L122.583 35.3279H120.748C119.262 35.3279 118.913 35.3734 118.913 35.5403C118.913 35.9801 119.52 37.1327 120.02 37.709C120.49 38.2094 120.854 38.4521 122.28 39.1346C122.416 39.2104 123.159 39.3317 123.903 39.4227C125.283 39.5895 127.679 39.4379 128.285 39.1346C128.422 39.0739 128.816 38.8767 129.15 38.7251C130.014 38.3156 130.833 37.3905 131.137 36.5109C131.47 35.5099 131.379 34.1147 130.909 33.1441C130.348 32.0066 128.862 31.1877 126.648 30.7933C123.796 30.2929 123.751 30.2777 123.296 29.8379C122.75 29.2768 122.75 29.0796 123.296 28.473C123.736 27.9877 123.766 27.9725 124.979 27.9725C126.193 27.9725 126.223 27.9877 126.663 28.473C126.905 28.746 127.103 29.0644 127.103 29.1858C127.103 29.3678 127.421 29.4133 128.998 29.4133C131.091 29.4133 131.03 29.4588 130.666 28.382C129.999 26.4711 128.285 25.5005 125.434 25.3943C124.555 25.364 123.705 25.364 123.539 25.4095V25.4095ZM103.368 25.728C102.701 25.9554 101.776 26.7137 101.487 27.2597C101.199 27.8057 100.941 27.5782 100.866 26.6682L100.79 25.8493H96.9983L96.9529 32.2189C96.9377 35.7222 96.9528 38.7402 96.9983 38.9374C97.0742 39.271 97.1197 39.271 98.9396 39.2407C99.986 39.2256 100.835 39.1346 100.896 39.0436C100.957 38.9677 101.017 37.3602 101.017 35.4796C101.017 32.5071 101.048 31.9763 101.305 31.309C101.836 29.9289 102.974 29.1099 104.399 29.1099C104.794 29.1099 104.96 29.0341 105.006 28.837C105.112 28.3971 105.127 26.3498 105.036 25.8948C104.945 25.5308 104.869 25.4701 104.46 25.4853C104.187 25.5005 103.702 25.6066 103.368 25.728V25.728ZM56.6572 25.9554C56.6117 26.0616 56.5966 29.0493 56.6117 32.5981L56.6572 39.0436L58.462 39.1194C59.5539 39.1649 60.3425 39.1346 60.4639 39.0436C60.6307 38.9222 60.6762 37.6331 60.6762 32.4768C60.6913 28.9583 60.6458 26.0009 60.6003 25.9251C60.4487 25.6976 56.7331 25.728 56.6572 25.9554V25.9554Z" fill="#D9D7E6"/>
</svg>
