<svg width="141" height="60" viewBox="0 0 141 60" fill="none" xmlns="http://www.w3.org/2000/svg">
<path d="M15.0194 42.1229H10.2494V30.232H7V26.3605H10.2493V23.6057C10.2493 20.3412 11.6864 18 16.4435 18C17.4496 18 19.0292 18.2028 19.0292 18.2028V21.7976H17.3701C15.6796 21.7976 15.0196 22.3118 15.0196 23.7334V26.3605H18.9659L18.6145 30.232H15.0195L15.0194 42.1229ZM25.9642 26.0511C25.8947 26.0511 25.8231 26.0537 25.7524 26.0554C21.3294 26.0554 19.3058 29.3824 19.3058 34.1052C19.3058 40.0546 21.9307 42.4357 25.7869 42.4357C27.9932 42.4357 29.4428 41.507 30.3239 39.774V42.1245H34.8608V26.3622H30.3239V28.7862C29.6045 27.2266 28.1144 26.0696 25.9642 26.0511ZM27.1178 29.7757C28.9754 29.7757 30.0904 31.0715 30.0904 33.2755L30.0947 35.5266C30.0947 37.0121 29.1738 38.7501 27.1178 38.7501C23.9569 38.7501 24.0413 35.337 24.0413 34.2002C24.0413 30.3764 25.7254 29.7757 27.1178 29.7757ZM36.693 34.2442C36.693 32.3288 36.6014 26.0614 44.7668 26.0614C48.0445 26.0614 49.4132 27.1036 49.4132 27.1036L48.3132 30.5155C48.3132 30.5155 46.9463 29.7628 45.1652 29.7628C42.8839 29.7628 41.4283 31.0853 41.4283 33.4121L41.4308 35.0805C41.4308 37.3163 42.8353 38.8088 45.1699 38.8088C46.7925 38.8088 48.288 38.049 48.288 38.049L49.3852 41.3897C49.3852 41.3897 48.1338 42.4385 44.7897 42.4385C37.0149 42.4385 36.6931 36.8154 36.6931 34.2442H36.693ZM76.0148 26.0554C80.4379 26.0554 82.4935 29.3824 82.4935 34.1052C82.4935 40.0546 79.8684 42.4357 76.0122 42.4357C73.8058 42.4357 72.1749 41.5072 71.2938 39.774V42.1245L66.814 42.1228V18.4793L71.5704 18.0644V28.5726C72.2569 26.7342 74.513 26.0554 76.0149 26.0554H76.0148ZM74.6813 29.7757C72.8237 29.7757 71.5704 31.0715 71.5704 33.2755L71.566 35.5266C71.5632 37.0121 72.4339 38.7501 74.6813 38.7501C77.8422 38.7501 77.7578 35.337 77.7578 34.2002C77.7578 30.3764 76.0738 29.7757 74.6813 29.7757ZM57.666 26.0685C52.6493 26.0685 50.0008 28.8037 50.0008 33.6644V34.5675C50.0008 40.8762 53.7201 42.5005 58.1542 42.5005C62.4642 42.5005 64.415 41.295 64.415 41.295L63.525 38.0847C63.525 38.0847 61.2302 39.0611 58.7245 39.0611C56.1269 39.0611 55.0098 38.399 54.7234 35.9027H64.7953V33.3273C64.7953 28.0546 61.8229 26.0683 57.6659 26.0683L57.666 26.0685ZM57.7869 29.283C59.5234 29.283 60.6487 30.3479 60.5869 32.8175H54.7322C54.8337 30.2183 56.0472 29.2832 57.7869 29.2832V29.283ZM91.9776 26.0468C86.8258 26.0468 84.1137 28.95 84.1137 34.1526C84.1137 41.2909 88.7888 42.44 91.9862 42.44C96.6669 42.44 99.781 39.92 99.781 34.2175C99.781 28.2821 96.2795 26.0468 91.9776 26.0468V26.0468ZM91.9128 29.7886C94.178 29.7886 95.0757 31.484 95.0757 33.4139V35.0731C95.0757 37.4109 93.8197 38.7631 91.9041 38.7631C90.1127 38.7631 88.8536 37.4982 88.8536 35.0731V33.4139C88.8536 30.8274 90.3518 29.7886 91.9128 29.7886V29.7886ZM109.257 26.0468C104.105 26.0468 101.393 28.95 101.393 34.1526C101.393 41.2909 106.068 42.44 109.265 42.44C113.946 42.44 117.06 39.92 117.06 34.2175C117.06 28.2821 113.558 26.0468 109.257 26.0468V26.0468ZM109.192 29.7886C111.457 29.7886 112.355 31.484 112.355 33.4139V35.0731C112.355 37.4109 111.099 38.7631 109.183 38.7631C107.392 38.7631 106.133 37.4982 106.133 35.0731V33.4139C106.133 30.8274 107.631 29.7886 109.192 29.7886V29.7886ZM118.857 42.1229V18.4793L123.628 18.0644V33.9119L128.36 26.3605H133.398L128.461 34.1815L133.588 42.1229H128.536L123.628 34.4119V42.1229H118.857Z" fill="#D9D7E6"/>
</svg>
