<svg width="629" height="630" viewBox="0 0 629 630" fill="none" xmlns="http://www.w3.org/2000/svg">
<g filter="url(#filter0_d)">
<path fill-rule="evenodd" clip-rule="evenodd" d="M250.782 69.7327C250.782 58.1254 260.192 48.7158 271.799 48.7158H352.297C363.904 48.7158 373.314 58.1254 373.314 69.7327V150.231C373.314 161.838 363.904 171.248 352.297 171.248H271.799C260.192 171.248 250.782 161.838 250.782 150.231V69.7327ZM249.354 208.716C237.747 208.716 228.337 218.125 228.337 229.733V347C228.337 358.608 237.747 368.017 249.354 368.017H366.621C378.229 368.017 387.638 358.608 387.638 347V229.733C387.638 218.125 378.229 208.716 366.621 208.716H249.354ZM396.532 123.631C396.532 112.023 405.942 102.614 417.549 102.614H493.097C504.704 102.614 514.113 112.023 514.113 123.631V199.178C514.113 210.785 504.704 220.195 493.097 220.195H417.549C405.942 220.195 396.532 210.785 396.532 199.178V123.631ZM171.313 75.1288C159.705 75.1288 150.296 84.5384 150.296 96.1457V127.965C150.296 129.324 150.425 130.653 150.671 131.941C149.762 131.82 148.833 131.758 147.89 131.758H98.598C86.9906 131.758 77.5811 141.168 77.5811 152.775V202.068C77.5811 213.675 86.9906 223.085 98.598 223.085H147.89C159.498 223.085 168.907 213.675 168.907 202.068V152.775C168.907 151.416 168.778 150.087 168.532 148.799C169.442 148.92 170.37 148.982 171.313 148.982H203.132C214.739 148.982 224.149 139.572 224.149 127.965V96.1457C224.149 84.5384 214.739 75.1288 203.132 75.1288H171.313ZM80.9095 246.275C69.3022 246.275 59.8926 255.685 59.8926 267.292V344.377C59.8926 355.985 69.3022 365.394 80.9095 365.394H157.995C169.602 365.394 179.012 355.985 179.012 344.377V267.292C179.012 255.685 169.602 246.275 157.995 246.275H80.9095ZM135.877 391.623C124.27 391.623 114.86 401.033 114.86 412.64V484.583C114.86 496.19 124.27 505.599 135.877 505.599H207.82C219.427 505.599 228.837 496.19 228.837 484.583V412.64C228.837 401.033 219.427 391.623 207.82 391.623H135.877ZM275.878 439.3C264.271 439.3 254.861 448.71 254.861 460.317V537.402C254.861 549.01 264.271 558.419 275.878 558.419H352.964C364.571 558.419 373.98 549.01 373.98 537.402V460.317C373.98 448.71 364.571 439.3 352.964 439.3H275.878ZM422.354 458.716C410.746 458.716 401.337 468.125 401.337 479.733V511.41C401.337 523.018 410.746 532.427 422.354 532.427H454.031C465.639 532.427 475.048 523.018 475.048 511.41V481.537C476.743 481.978 478.521 482.212 480.354 482.212H530.817C542.424 482.212 551.833 472.803 551.833 461.195V410.733C551.833 399.125 542.424 389.716 530.817 389.716H480.354C468.747 389.716 459.337 399.125 459.337 410.733V459.391C457.642 458.95 455.864 458.716 454.031 458.716H422.354ZM449.514 267.226C449.514 255.618 458.923 246.209 470.531 246.209H547.616C559.223 246.209 568.633 255.618 568.633 267.226V344.311C568.633 355.918 559.223 365.328 547.616 365.328H470.531C458.923 365.328 449.514 355.918 449.514 344.311V267.226Z" fill="#FF0A0A" fill-opacity="0.01"/>
</g>
<g opacity="0.64">
<rect x="250.783" y="48.7158" width="122.532" height="122.532" rx="21.0169" fill="#1D1A27"/>
<rect x="250.873" y="48.8058" width="122.352" height="122.352" rx="20.9269" stroke="white" stroke-opacity="0.18" stroke-width="0.18"/>
</g>
<path d="M316.807 138.61H305.485V110.386H297.772V101.197H305.485V94.6587C305.485 86.9104 308.896 81.3534 320.187 81.3534C322.575 81.3534 326.324 81.8347 326.324 81.8347V90.3673H322.386C318.374 90.3673 316.807 91.5877 316.807 94.9619V101.197H326.174L325.34 110.386H316.807L316.807 138.61Z" fill="white"/>
<g opacity="0.64">
<rect x="228.337" y="208.716" width="159.301" height="159.301" rx="21.0169" fill="#1D1A27"/>
<rect x="228.427" y="208.806" width="159.121" height="159.121" rx="20.9269" stroke="white" stroke-opacity="0.18" stroke-width="0.18"/>
</g>
<path d="M287.166 282.62C290.343 271.118 302.228 264.377 313.732 267.555C325.235 270.732 331.975 282.617 328.798 294.12C324.191 310.797 312.176 324.413 296.209 331.105C315.625 336.468 336.866 327.99 346.91 309.54C358.613 288.043 350.648 261.145 329.151 249.442C326.136 247.79 322.98 246.525 319.786 245.643C303.731 252.182 291.66 265.88 287.166 282.62Z" fill="url(#paint0_linear)"/>
<path d="M286.811 327.298C289.856 328.958 292.982 330.214 296.178 331.097L296.208 331.105C312.174 324.413 324.189 310.797 328.796 294.121C325.619 305.624 313.733 312.364 302.231 309.187C290.727 306.008 283.986 294.124 287.165 282.62C291.658 265.88 303.73 252.182 319.785 245.643C300.376 240.249 279.105 248.719 269.053 267.2C257.38 288.706 265.314 315.595 286.811 327.298Z" fill="url(#paint1_linear)"/>
<g opacity="0.64">
<rect x="396.532" y="102.614" width="117.581" height="117.581" rx="21.0169" fill="#1D1A27"/>
<rect x="396.622" y="102.704" width="117.401" height="117.401" rx="20.9269" stroke="white" stroke-opacity="0.18" stroke-width="0.18"/>
</g>
<path d="M479.463 161.995C479.463 160.296 479.25 158.597 479.038 157.005H455.682V166.56H469.058C468.528 169.532 466.829 172.399 464.175 173.991V180.149H472.243C476.915 175.796 479.463 169.426 479.463 161.995Z" fill="white"/>
<path d="M455.786 186.094C462.474 186.094 468.101 183.865 472.241 180.149L464.173 173.991C461.943 175.478 459.183 176.433 455.786 176.433C449.416 176.433 443.789 172.187 441.984 166.135H433.81V172.505C438.056 180.786 446.443 186.094 455.786 186.094Z" fill="white"/>
<path d="M441.985 166.135C440.817 163.163 440.817 159.765 441.985 156.58V150.21H433.81C430.307 157.111 430.307 165.286 433.81 172.399L441.985 166.135Z" fill="white"/>
<path d="M455.786 146.495C459.29 146.495 462.687 147.769 465.341 150.21L472.454 143.097C467.995 138.957 462.05 136.515 455.999 136.727C446.656 136.727 438.057 141.929 434.022 150.317L442.197 156.686C443.896 150.741 449.416 146.495 455.786 146.495Z" fill="white"/>
<g opacity="0.64">
<rect x="150.296" y="75.1288" width="73.8528" height="73.8528" rx="21.0169" fill="#1D1A27"/>
<rect x="150.386" y="75.2188" width="73.6728" height="73.6728" rx="20.9269" stroke="white" stroke-opacity="0.18" stroke-width="0.18"/>
</g>
<path d="M180.115 127.517C194.48 127.517 202.311 115.597 202.311 105.322C202.311 104.973 202.311 104.623 202.311 104.324C203.857 103.227 205.154 101.83 206.201 100.284C204.805 100.883 203.308 101.332 201.712 101.531C203.308 100.583 204.555 99.0372 205.154 97.1917C203.657 98.0895 201.962 98.7379 200.216 99.087C198.769 97.5408 196.774 96.5931 194.53 96.5931C190.19 96.5931 186.699 100.085 186.699 104.424C186.699 105.022 186.749 105.621 186.898 106.22C180.414 105.87 174.678 102.778 170.788 98.0396C170.139 99.1868 169.74 100.533 169.74 101.93C169.74 104.623 171.137 107.018 173.232 108.414C171.935 108.364 170.738 108.015 169.691 107.417C169.691 107.467 169.691 107.467 169.691 107.516C169.691 111.307 172.384 114.449 175.975 115.148C175.327 115.347 174.629 115.447 173.93 115.447C173.431 115.447 172.933 115.397 172.484 115.297C173.481 118.39 176.374 120.634 179.766 120.734C177.073 122.829 173.731 124.076 170.09 124.076C169.441 124.076 168.843 124.026 168.244 123.976C171.636 126.221 175.726 127.517 180.115 127.517Z" fill="white"/>
<g opacity="0.64">
<rect x="77.5815" y="131.758" width="91.3263" height="91.3263" rx="21.0169" fill="#1D1A27"/>
<rect x="77.6715" y="131.848" width="91.1463" height="91.1463" rx="20.9269" stroke="white" stroke-opacity="0.18" stroke-width="0.18"/>
</g>
<path fill-rule="evenodd" clip-rule="evenodd" d="M108.389 155.455H138.077C140.581 155.455 142.619 157.493 142.641 159.996V199.388L137.856 195.245L135.175 192.786L132.339 190.172L133.513 194.226H108.389C105.886 194.226 103.848 192.188 103.848 189.684V159.996C103.848 157.493 105.886 155.455 108.389 155.455ZM128.063 182.373C128.728 183.193 129.525 184.145 129.525 184.145C134.164 183.999 136.079 181.127 136.267 180.844C136.278 180.829 136.283 180.821 136.283 180.822C136.283 173.755 133.092 168.017 133.092 168.017C129.924 165.646 126.889 165.712 126.889 165.712L126.579 166.067C130.345 167.197 132.095 168.858 132.095 168.858C129.791 167.618 127.531 166.997 125.427 166.754C123.832 166.576 122.303 166.621 120.951 166.798C120.835 166.798 120.736 166.815 120.624 166.834C120.608 166.837 120.592 166.84 120.575 166.842C119.799 166.931 117.916 167.197 115.546 168.238C114.726 168.593 114.238 168.858 114.238 168.858C114.238 168.858 116.055 167.108 120.043 165.978L119.822 165.712C119.822 165.712 116.808 165.646 113.618 168.017C113.618 168.017 110.428 173.755 110.428 180.822C110.428 180.822 112.289 184.013 117.185 184.168C117.185 184.168 118.005 183.193 118.669 182.351C115.856 181.509 114.792 179.759 114.792 179.759C114.792 179.759 115.014 179.914 115.413 180.135C115.426 180.135 115.44 180.144 115.459 180.156C115.471 180.163 115.484 180.171 115.501 180.18C115.534 180.202 115.568 180.219 115.601 180.235C115.634 180.252 115.667 180.268 115.701 180.291C116.255 180.601 116.808 180.844 117.318 181.044C118.226 181.42 119.312 181.753 120.575 181.996C122.236 182.307 124.186 182.417 126.313 182.019C127.354 181.819 128.418 181.531 129.525 181.066C130.301 180.778 131.165 180.357 132.073 179.759C132.073 179.759 130.966 181.553 128.063 182.373ZM125.05 176.324C125.05 174.973 126.047 173.887 127.31 173.887C128.55 173.887 129.569 174.973 129.569 176.324C129.569 177.676 128.573 178.761 127.31 178.761C126.069 178.761 125.05 177.676 125.05 176.324ZM116.963 176.324C116.963 174.973 117.96 173.887 119.223 173.887C120.486 173.887 121.505 174.973 121.483 176.324C121.483 177.676 120.486 178.761 119.223 178.761C117.982 178.761 116.963 177.676 116.963 176.324Z" fill="white"/>
<g opacity="0.64">
<rect x="59.8931" y="246.275" width="119.119" height="119.119" rx="21.0169" fill="#1D1A27"/>
<rect x="59.9831" y="246.365" width="118.939" height="118.939" rx="20.9269" stroke="white" stroke-opacity="0.18" stroke-width="0.18"/>
</g>
<path d="M121.215 328.143L107.985 327.901C103.701 327.817 99.4063 327.986 95.2067 327.112C88.8177 325.807 88.3651 319.407 87.8915 314.039C87.2389 306.493 87.4915 298.809 88.723 291.325C89.4177 287.126 92.1543 284.621 96.3855 284.347C110.669 283.358 125.046 283.473 139.298 283.936C140.803 283.979 142.319 284.21 143.803 284.473C151.128 285.757 151.307 293.009 151.781 299.114C152.255 305.282 152.055 311.482 151.149 317.607C150.423 322.681 149.034 326.933 143.171 327.343C135.824 327.88 128.646 328.312 121.278 328.175C121.278 328.143 121.236 328.143 121.215 328.143ZM113.437 315.302C118.973 312.124 124.404 308.998 129.909 305.84C124.362 302.661 118.942 299.535 113.437 296.378V315.302Z" fill="white"/>
<g opacity="0.64">
<rect x="114.861" y="391.623" width="113.976" height="113.976" rx="21.0169" fill="#1D1A27"/>
<rect x="114.951" y="391.713" width="113.796" height="113.796" rx="20.9269" stroke="white" stroke-opacity="0.18" stroke-width="0.18"/>
</g>
<path fill-rule="evenodd" clip-rule="evenodd" d="M202.583 448.611C202.583 465.585 188.823 479.345 171.849 479.345C154.875 479.345 141.115 465.585 141.115 448.611C141.115 431.637 154.875 417.877 171.849 417.877C188.823 417.877 202.583 431.637 202.583 448.611ZM187.877 444.137C190.334 444.137 192.351 446.117 192.351 448.611C192.351 450.445 191.251 452.022 189.711 452.719C189.784 453.159 189.821 453.636 189.821 454.076C189.821 461.007 181.789 466.583 171.887 466.583C161.984 466.583 153.952 460.971 153.952 454.076C153.952 453.599 153.988 453.159 154.062 452.719C152.521 452.022 151.421 450.482 151.421 448.648C151.421 446.19 153.402 444.174 155.896 444.174C157.057 444.172 158.173 444.619 159.013 445.421C162.13 443.183 166.422 441.753 171.189 441.606L173.464 430.897C173.5 430.677 173.61 430.493 173.793 430.383C173.94 430.273 174.16 430.236 174.38 430.273L181.825 431.85C182.339 430.787 183.439 430.053 184.686 430.053C186.447 430.053 187.877 431.483 187.877 433.244C187.877 435.005 186.447 436.435 184.686 436.435C182.962 436.435 181.569 435.078 181.495 433.391L174.82 431.96L172.766 441.57C177.461 441.753 181.679 443.183 184.759 445.384C185.566 444.613 186.667 444.137 187.877 444.137ZM164.808 448.611C163.047 448.611 161.617 450.041 161.617 451.802C161.617 453.562 163.047 455.029 164.808 454.993C166.569 454.993 167.999 453.562 167.999 451.802C167.999 450.041 166.569 448.611 164.808 448.611ZM171.887 462.622C173.097 462.622 177.278 462.475 179.478 460.274C179.772 459.944 179.772 459.43 179.478 459.1C179.148 458.771 178.635 458.771 178.304 459.1C176.947 460.494 173.977 460.971 171.887 460.971C169.796 460.971 166.862 460.494 165.468 459.1C165.138 458.771 164.624 458.771 164.294 459.1C163.965 459.43 163.965 459.944 164.294 460.274C166.458 462.438 170.64 462.622 171.887 462.622ZM175.701 451.839C175.701 453.599 177.131 455.029 178.891 455.029C180.652 455.029 182.082 453.562 182.082 451.839C182.082 450.078 180.652 448.648 178.891 448.648C177.131 448.648 175.701 450.078 175.701 451.839Z" fill="white"/>
<g opacity="0.64">
<rect x="254.861" y="439.3" width="119.119" height="119.119" rx="21.0169" fill="#1D1A27"/>
<rect x="254.951" y="439.39" width="118.939" height="118.939" rx="20.9269" stroke="white" stroke-opacity="0.18" stroke-width="0.18"/>
</g>
<path d="M328.914 490.254C328.914 490.254 324.053 505.521 323.657 506.781C323.513 505.485 319.948 478.084 319.948 478.084C311.667 478.084 307.238 483.989 304.898 490.218C304.898 490.218 298.993 505.521 298.488 506.817C298.452 505.629 297.588 490.398 297.588 490.398C297.084 482.765 290.099 478.12 284.446 478.12L291.287 519.636C299.965 519.6 304.646 513.731 307.094 507.501C307.094 507.501 312.315 493.999 312.531 493.387C312.567 493.963 316.276 519.636 316.276 519.636C324.989 519.636 329.67 514.127 332.191 508.114L344.397 478.12C335.791 478.12 331.255 483.989 328.914 490.254Z" fill="white"/>
<g opacity="0.64">
<rect x="401.337" y="458.716" width="73.7114" height="73.7114" rx="21.0169" fill="#1D1A27"/>
<rect x="401.427" y="458.806" width="73.5314" height="73.5314" rx="20.9269" stroke="white" stroke-opacity="0.18" stroke-width="0.18"/>
</g>
<g opacity="0.64">
<rect x="459.337" y="389.716" width="92.4965" height="92.4965" rx="21.0169" fill="#1D1A27"/>
<rect x="459.427" y="389.806" width="92.3165" height="92.3165" rx="20.9269" stroke="white" stroke-opacity="0.18" stroke-width="0.18"/>
</g>
<path fill-rule="evenodd" clip-rule="evenodd" d="M521.414 438.098L515.117 444.395H505.226L499.829 449.79V444.395H491.735V418.313H521.414V438.098ZM488.136 414.716L486.338 421.911V454.287H494.433V458.785H498.928L503.427 454.287H510.62L525.01 439.899V414.716H488.136Z" fill="white"/>
<path fill-rule="evenodd" clip-rule="evenodd" d="M501.627 436.301H505.224V425.507H501.627V436.301ZM511.519 436.301H515.116V425.507H511.519V436.301Z" fill="white"/>
<path fill-rule="evenodd" clip-rule="evenodd" d="M422.338 494.732C422.338 486.104 429.097 479.716 437.818 479.716C446.54 479.716 453.299 486.104 453.299 494.732C453.299 503.36 446.54 509.749 437.818 509.749C436.252 509.749 434.747 509.543 433.336 509.154C433.062 509.079 432.772 509.101 432.511 509.216L429.44 510.571C428.636 510.923 427.73 510.353 427.702 509.474L427.617 506.721C427.605 506.381 427.452 506.067 427.2 505.84C424.188 503.145 422.338 499.246 422.338 494.732ZM433.072 491.91L428.524 499.124C428.085 499.816 428.938 500.597 429.589 500.102L434.476 496.392C434.807 496.143 435.261 496.14 435.595 496.389L439.211 499.102C440.295 499.915 441.846 499.629 442.569 498.482L447.113 491.272C447.552 490.58 446.699 489.798 446.048 490.294L441.164 494C440.834 494.249 440.379 494.253 440.046 494.003L436.429 491.29C435.345 490.477 433.794 490.764 433.072 491.91Z" fill="white"/>
<g opacity="0.64">
<rect x="449.514" y="246.209" width="119.119" height="119.119" rx="21.0169" fill="#1D1A27"/>
<rect x="449.604" y="246.299" width="118.939" height="118.939" rx="20.9269" stroke="white" stroke-opacity="0.18" stroke-width="0.18"/>
</g>
<path d="M506.184 275.428C502.897 275.796 497.967 277.326 495.161 278.856C487.624 282.908 482.524 289.227 479.973 297.643C479.463 299.287 478.868 303.764 478.896 305.861C478.896 307.702 479.463 312.208 479.803 313.285C479.973 313.795 480.342 315.013 480.653 315.948C481.163 317.535 483.629 322.522 484.054 322.862C484.139 322.947 484.592 323.514 485.017 324.166C486.066 325.724 488.814 328.501 490.883 330.088C492.469 331.306 496.947 333.885 497.513 333.913C497.655 333.913 497.683 332.837 497.598 331.42C497.4 328.274 497.995 323.996 499.27 319.632C499.497 318.895 499.667 317.932 499.667 317.507C499.667 317.082 499.78 316.628 499.922 316.487C500.064 316.317 500.319 315.495 500.46 314.645C500.63 313.795 500.914 312.491 501.112 311.754C501.395 310.649 501.367 310.224 500.97 309.034C500.404 307.221 500.375 304.274 500.942 302.857C502.274 299.485 503.747 298.21 506.241 298.21C509.244 298.21 510.69 300.477 510.123 304.274C509.868 306.002 509.159 308.722 508.706 309.573C508.593 309.828 508.394 310.536 508.309 311.131C508.196 311.754 507.969 312.633 507.828 313.115C507.431 314.22 508.196 316.373 509.216 317.195C510.18 317.96 512.191 318.187 514.033 317.762C515.337 317.478 515.875 317.138 517.235 315.835C518.85 314.248 520.069 312.406 520.069 311.528C520.265 311.131 520.211 310.933 520.381 310.763C521.174 309.969 521.599 303.792 521.004 301.185C520.352 298.323 518.34 295.518 515.733 293.874C513.127 292.203 507.743 291.721 504.427 292.854C502.104 293.648 500.035 294.979 498.703 296.538C497.513 297.926 496.267 300.193 496.267 300.987C496.267 301.27 496.125 301.638 495.955 301.808C495.785 301.978 495.586 303.055 495.501 304.217C495.36 305.946 495.473 306.739 495.983 308.439C496.323 309.601 496.947 310.961 497.315 311.471C498.08 312.491 498.08 312.888 497.372 315.608C497.173 316.345 496.833 317.025 496.635 317.11C494.85 317.79 491.223 313.511 490.004 309.261C489.551 307.646 489.523 301.893 489.976 300.193C490.174 299.485 490.514 298.521 490.741 298.011C490.968 297.53 491.166 297.048 491.166 296.935C491.166 296.821 491.733 295.858 492.441 294.809C496.125 289.256 502.104 286.309 509.67 286.309C511.398 286.309 513.183 286.422 513.665 286.564C517.575 287.782 518.624 288.179 520.154 289.086C523.129 290.871 525.283 293.308 527.436 297.388C527.578 297.643 527.776 298.323 527.861 298.89C527.975 299.457 528.173 299.995 528.315 300.08C528.456 300.165 528.57 302.007 528.57 304.189C528.57 308.127 528.286 309.714 527.096 312.945C525.764 316.487 522.336 320.397 519.219 321.927C517.434 322.777 514.09 323.712 512.758 323.712C510.973 323.712 507.459 322.239 506.496 321.049C506.042 320.51 505.617 320.709 505.617 321.474C505.617 321.757 505.504 322.239 505.334 322.522C505.192 322.777 504.937 323.571 504.796 324.279C503.974 328.019 502.812 331.051 501.027 333.885C500.489 334.763 500.942 335.273 502.415 335.472C503.152 335.585 504.144 335.783 504.597 335.925C505.731 336.294 511.88 336.237 513.948 335.868C515.818 335.528 518.85 334.678 520.211 334.112C528.768 330.598 535.257 323.457 538.062 314.361C539.564 309.516 539.649 303.877 538.289 298.21C537.836 296.368 537.694 295.943 536.475 293.109C534.719 288.972 530.752 284.127 526.728 281.151C523.271 278.601 519.871 277.128 514.572 275.853C513.098 275.513 507.856 275.229 506.184 275.428Z" fill="white"/>
<defs>
<filter id="filter0_d" x="0.075222" y="0.215262" width="628.375" height="629.338" filterUnits="userSpaceOnUse" color-interpolation-filters="sRGB">
<feFlood flood-opacity="0" result="BackgroundImageFix"/>
<feColorMatrix in="SourceAlpha" type="matrix" values="0 0 0 0 0 0 0 0 0 0 0 0 0 0 0 0 0 0 127 0" result="hardAlpha"/>
<feOffset dy="11.3168"/>
<feGaussianBlur stdDeviation="29.9087"/>
<feColorMatrix type="matrix" values="0 0 0 0 0 0 0 0 0 0 0 0 0 0 0 0 0 0 0.45 0"/>
<feBlend mode="normal" in2="BackgroundImageFix" result="effect1_dropShadow"/>
<feBlend mode="normal" in="SourceGraphic" in2="effect1_dropShadow" result="shape"/>
</filter>
<linearGradient id="paint0_linear" x1="287.166" y1="259.623" x2="359.396" y2="324.561" gradientUnits="userSpaceOnUse">
<stop stop-color="#B372CE"/>
<stop offset="1" stop-color="#F57591"/>
</linearGradient>
<linearGradient id="paint1_linear" x1="270.031" y1="264.985" x2="318.709" y2="315.437" gradientUnits="userSpaceOnUse">
<stop stop-color="#7582F9"/>
<stop offset="1" stop-color="#9B66D4"/>
</linearGradient>
</defs>
</svg>
